<svg xmlns="http://www.w3.org/2000/svg" width="61.291" height="61.193" viewBox="0 0 61.291 61.193">
  <g id="Group_15" data-name="Group 15" transform="translate(1005.245 -922.88)">
    <g id="Group_1728" data-name="Group 1728" transform="translate(-1000.264 924.88)">
      <g id="Group_1721" data-name="Group 1721">
        <path id="Path_1127" data-name="Path 1127" d="M-1001.269,952.035c0,3.488,3.444,6.267,4.7,9.3,1.3,3.144.883,7.533,3.253,9.9s6.757,1.949,9.9,3.253c3.034,1.258,5.811,4.7,9.3,4.7s6.267-3.443,9.3-4.7c3.144-1.3,7.532-.883,9.9-3.253s1.948-6.757,3.251-9.9c1.258-3.034,4.7-5.813,4.7-9.3s-3.443-6.267-4.7-9.3c-1.3-3.146-.883-7.532-3.253-9.9s-6.757-1.948-9.9-3.251c-3.034-1.258-5.811-4.7-9.3-4.7s-6.267,3.444-9.3,4.7c-3.144,1.3-7.533.883-9.9,3.251s-1.948,6.757-3.251,9.9C-997.825,945.768-1001.269,948.547-1001.269,952.035Z" transform="translate(1001.269 -924.88)" fill="none" stroke="#fff" stroke-linecap="round" stroke-linejoin="round" stroke-width="4"/>
      </g>
      <g id="Group_1727" data-name="Group 1727" transform="translate(17.918 12.437)">
        <g id="Group_1725" data-name="Group 1725" transform="translate(0 6.988)">
          <g id="Group_1724" data-name="Group 1724">
            <line id="Line_1168" data-name="Line 1168" y1="12.475" x2="12.475" transform="translate(6.894)" fill="none" stroke="#6381d4" stroke-linecap="round" stroke-linejoin="round" stroke-width="4"/>
            <g id="Group_1723" data-name="Group 1723" transform="translate(0 6.192)">
              <g id="Group_1722" data-name="Group 1722">
                <line id="Line_1169" data-name="Line 1169" x1="6.893" y1="6.284" fill="none" stroke="#6381d4" stroke-linecap="round" stroke-linejoin="round" stroke-width="4"/>
              </g>
            </g>
          </g>
        </g>
        <g id="Group_1726" data-name="Group 1726" transform="translate(9.237)">
          <path id="Path_1128" data-name="Path 1128" d="M-983.269,933.124" transform="translate(983.269 -933.124)" fill="none" stroke="#9f6aff" stroke-linecap="round" stroke-linejoin="round" stroke-width="4"/>
        </g>
      </g>
    </g>
    <g id="Group_1737" data-name="Group 1737" transform="translate(-1003.245 927.763)" opacity="0.15">
      <g id="Group_1736" data-name="Group 1736">
        <g id="Group_1729" data-name="Group 1729">
          <path id="Path_1129" data-name="Path 1129" d="M-1003.245,953.946c0,3.488,3.443,6.267,4.7,9.3,1.3,3.144.883,7.531,3.253,9.9s6.757,1.948,9.9,3.253c3.034,1.257,5.813,4.7,9.3,4.7s6.267-3.444,9.3-4.7c3.146-1.3,7.532-.883,9.9-3.251s1.948-6.757,3.251-9.9c1.258-3.032,4.7-5.811,4.7-9.3s-3.444-6.267-4.7-9.3c-1.3-3.144-.883-7.531-3.251-9.9s-6.758-1.948-9.9-3.253c-3.032-1.257-5.811-4.7-9.3-4.7s-6.267,3.444-9.3,4.7c-3.144,1.3-7.533.883-9.9,3.253s-1.949,6.757-3.253,9.9C-999.8,947.679-1003.245,950.458-1003.245,953.946Z" transform="translate(1003.245 -926.791)" fill="none" stroke="#6381d4" stroke-linecap="round" stroke-linejoin="round" stroke-width="4"/>
        </g>
        <g id="Group_1735" data-name="Group 1735" transform="translate(17.918 12.437)">
          <g id="Group_1733" data-name="Group 1733" transform="translate(0 6.988)">
            <g id="Group_1732" data-name="Group 1732">
              <line id="Line_1170" data-name="Line 1170" y1="12.475" x2="12.475" transform="translate(6.893)" fill="none" stroke="#6381d4" stroke-linecap="round" stroke-linejoin="round" stroke-width="4"/>
              <g id="Group_1731" data-name="Group 1731" transform="translate(0 6.192)">
                <g id="Group_1730" data-name="Group 1730">
                  <line id="Line_1171" data-name="Line 1171" x1="6.893" y1="6.284" fill="none" stroke="#6381d4" stroke-linecap="round" stroke-linejoin="round" stroke-width="4"/>
                </g>
              </g>
            </g>
          </g>
          <g id="Group_1734" data-name="Group 1734" transform="translate(9.237)">
            <path id="Path_1130" data-name="Path 1130" d="M-985.245,935.035" transform="translate(985.245 -935.035)" fill="none" stroke="#6381d4" stroke-linecap="round" stroke-linejoin="round" stroke-width="4"/>
          </g>
        </g>
      </g>
    </g>
  </g>
</svg>
