<svg xmlns="http://www.w3.org/2000/svg" width="41.135" height="52.356" viewBox="0 0 41.135 52.356">
  <g id="Group_1710" data-name="Group 1710" transform="translate(1754.13 -922.143)">
    <path id="Path_1115" data-name="Path 1115" d="M-1728.847,924.88a18.808,18.808,0,0,0-7.225,7.638,18.586,18.586,0,0,0-1.383,3.572,18.738,18.738,0,0,0-.685,4.96,18.668,18.668,0,0,0,1.524,7.4,17.4,17.4,0,0,1-7.946-8.4q-.333-.755-.6-1.545a23.484,23.484,0,0,0-4.8,11.783,17.415,17.415,0,0,0-.2,2.483c0,.074.011.146.011.219a17.32,17.32,0,0,0,17.315,17.108" transform="translate(0.506)" fill="none" stroke="#173587" stroke-linecap="round" stroke-linejoin="round" stroke-width="4"/>
    <path id="Path_1116" data-name="Path 1116" d="M-1736.36,970.1a17.327,17.327,0,0,0,15.916-10.479,17.233,17.233,0,0,0,1.4-6.628c0-.073.011-.144.011-.219a20.216,20.216,0,0,0-.2-2.483q-.045-.356-.113-.715a13.1,13.1,0,0,0-5.994-8.577,15.588,15.588,0,0,1-4.507-4.274,15.411,15.411,0,0,1-1.951-3.83,15.484,15.484,0,0,1-.868-5.088,15.586,15.586,0,0,1,.284-2.925" transform="translate(4.038)" fill="none" stroke="#6381d4" stroke-linecap="round" stroke-linejoin="round" stroke-width="4"/>
    <g id="Group_1709" data-name="Group 1709" transform="translate(-1752.13 927.28)" opacity="0.15">
      <path id="Path_1117" data-name="Path 1117" d="M-1730.823,926.791a18.79,18.79,0,0,0-7.225,7.638,18.65,18.65,0,0,0-1.384,3.572,18.737,18.737,0,0,0-.685,4.96,18.692,18.692,0,0,0,1.523,7.4,17.394,17.394,0,0,1-7.945-8.4c-.223-.5-.421-1.017-.6-1.545a23.476,23.476,0,0,0-4.8,11.783,17.2,17.2,0,0,0-.2,2.483c0,.074.01.146.011.219A17.319,17.319,0,0,0-1734.8,972.01" transform="translate(1752.13 -926.791)" fill="none" stroke="#6381d4" stroke-linecap="round" stroke-linejoin="round" stroke-width="4"/>
      <path id="Path_1118" data-name="Path 1118" d="M-1738.336,972.01a17.325,17.325,0,0,0,15.915-10.479,17.257,17.257,0,0,0,1.4-6.628c0-.073.011-.144.011-.219a20.166,20.166,0,0,0-.2-2.483q-.043-.356-.113-.715a13.1,13.1,0,0,0-5.993-8.577,15.594,15.594,0,0,1-4.508-4.274,15.525,15.525,0,0,1-1.951-3.83,15.522,15.522,0,0,1-.868-5.088,15.586,15.586,0,0,1,.285-2.925" transform="translate(1755.662 -926.791)" fill="none" stroke="#6381d4" stroke-linecap="round" stroke-linejoin="round" stroke-width="4"/>
    </g>
  </g>
</svg>
