<svg xmlns="http://www.w3.org/2000/svg" width="41.83" height="36.921" viewBox="0 0 41.83 36.921">
  <g id="Group_493" data-name="Group 493" transform="translate(816.799 5467.558)">
    <g id="Group_491" data-name="Group 491">
      <path id="Path_255" data-name="Path 255" d="M-780.32-5451.892v13.295a4,4,0,0,1-4,4h-21.351a4,4,0,0,1-4-4v-8.427" fill="none" stroke="#173587" stroke-linecap="round" stroke-linejoin="round" stroke-width="4"/>
      <path id="Path_256" data-name="Path 256" d="M-807.534-5465.558a3,3,0,0,0-2.836,2.02l-2.384,6.891c-.872,2.522.681,4.755,3.55,4.755a6.429,6.429,0,0,0,5.229-2.92,4.277,4.277,0,0,0,4.243,2.92,5.253,5.253,0,0,0,4.736-2.92,5.253,5.253,0,0,0,4.736,2.92h0a4.276,4.276,0,0,0,4.243-2.92,6.431,6.431,0,0,0,5.229,2.92h0c2.869,0,4.422-2.233,3.55-4.755l-2.384-6.891a3,3,0,0,0-2.835-2.02Z" fill="none" stroke="#6381d4" stroke-linecap="round" stroke-linejoin="round" stroke-width="4"/>
      <path id="Path_257" data-name="Path 257" d="M-790.675-5434.6h-8.554v-7.757a4.068,4.068,0,0,1,4.069-4.069h.415a4.069,4.069,0,0,1,4.07,4.069Z" fill="none" stroke="#173587" stroke-linecap="round" stroke-linejoin="round" stroke-width="4"/>
    </g>
    <g id="Group_492" data-name="Group 492" opacity="0.15">
      <path id="Path_258" data-name="Path 258" d="M-782.1-5449.932v13.295a4,4,0,0,1-4,4h-21.351a4,4,0,0,1-4-4v-8.427" fill="none" stroke="#6381d4" stroke-linecap="round" stroke-linejoin="round" stroke-width="4"/>
      <path id="Path_259" data-name="Path 259" d="M-809.31-5463.6a3,3,0,0,0-2.836,2.02l-2.384,6.891c-.872,2.522.681,4.755,3.55,4.755a6.429,6.429,0,0,0,5.229-2.92,4.277,4.277,0,0,0,4.243,2.92,5.253,5.253,0,0,0,4.736-2.92,5.253,5.253,0,0,0,4.736,2.92h0a4.276,4.276,0,0,0,4.243-2.92,6.431,6.431,0,0,0,5.229,2.92h0c2.869,0,4.422-2.233,3.55-4.755l-2.384-6.891a3,3,0,0,0-2.835-2.02Z" fill="none" stroke="#6381d4" stroke-linecap="round" stroke-linejoin="round" stroke-width="4"/>
      <path id="Path_260" data-name="Path 260" d="M-792.451-5432.637h-8.555v-7.757a4.069,4.069,0,0,1,4.07-4.069h.415a4.069,4.069,0,0,1,4.07,4.069Z" fill="none" stroke="#6381d4" stroke-linecap="round" stroke-linejoin="round" stroke-width="4"/>
    </g>
  </g>
</svg>
