<svg xmlns="http://www.w3.org/2000/svg" width="30.083" height="41.426" viewBox="0 0 30.083 41.426">
  <g id="Group_1206" data-name="Group 1206" transform="translate(918.736 -1716.36) rotate(-90)">
    <g id="Group_1204" data-name="Group 1204">
      <path id="Path_669" data-name="Path 669" d="M-1730.189-900.176l8.918,4.562a2,2,0,0,0,2.911-1.781v-14.511a2,2,0,0,0-2.911-1.78l-8.918,4.562v-3.612a4,4,0,0,0-4-4h-11.173" fill="none" stroke="#173587" stroke-linecap="round" stroke-linejoin="round" stroke-width="4"/>
    </g>
    <path id="Path_670" data-name="Path 670" d="M-1750.36-916.736a4,4,0,0,0-4,4v16.171a4,4,0,0,0,4,4h16.171a4,4,0,0,0,4-4v-3.611" fill="none" stroke="#6381d4" stroke-linecap="round" stroke-linejoin="round" stroke-width="4"/>
    <g id="Group_1205" data-name="Group 1205" opacity="0.1">
      <path id="Path_671" data-name="Path 671" d="M-1731.615-898.265l8.919,4.562a2,2,0,0,0,2.91-1.78v-14.511a2,2,0,0,0-2.91-1.781l-8.919,4.562v-3.611a4,4,0,0,0-4-4h-11.172" fill="none" stroke="#6381d4" stroke-linecap="round" stroke-linejoin="round" stroke-width="4"/>
    </g>
    <path id="Path_672" data-name="Path 672" d="M-1751.786-914.824a4,4,0,0,0-4,4v16.171a4,4,0,0,0,4,4h16.171a4,4,0,0,0,4-4v-3.612" fill="none" stroke="#6381d4" stroke-linecap="round" stroke-linejoin="round" stroke-width="4" opacity="0.1"/>
  </g>
</svg>
