<svg xmlns="http://www.w3.org/2000/svg" width="54.06" height="51.666" viewBox="0 0 54.06 51.666">
  <g id="Group_14" data-name="Group 14" transform="translate(628.549 -362.285)">
    <g id="Group_1651" data-name="Group 1651" transform="translate(-623.945 364.285)">
      <line id="Line_1136" data-name="Line 1136" y2="24.17" transform="translate(13.49 20.978)" fill="none" stroke="#6381d4" stroke-linecap="round" stroke-linejoin="round" stroke-width="4"/>
      <path id="Path_1065" data-name="Path 1065" d="M-603.734,409.409h18.1a5.774,5.774,0,0,0,5.705-4.889l2.732-17.633a5.6,5.6,0,0,0-5.538-6.463h-13.093v-10.46a5.678,5.678,0,0,0-5.677-5.679h-.084a3.067,3.067,0,0,0-3.027,2.579h0a54.149,54.149,0,0,1-4.755,14.913l-1.69,3.462h-9.912a3.6,3.6,0,0,0-3.6,3.6v16.969a3.6,3.6,0,0,0,3.6,3.6h9.889" transform="translate(624.573 -364.285)" fill="none" stroke="#173587" stroke-linecap="round" stroke-linejoin="round" stroke-width="4"/>
    </g>
    <g id="Group_1653" data-name="Group 1653" transform="translate(-626.549 366.803)" opacity="0.15">
      <g id="Group_1652" data-name="Group 1652">
        <line id="Line_1137" data-name="Line 1137" y2="24.17" transform="translate(13.489 20.978)" fill="none" stroke="#6381d4" stroke-linecap="round" stroke-linejoin="round" stroke-width="4"/>
        <path id="Path_1066" data-name="Path 1066" d="M-605.711,411.32h18.1a5.772,5.772,0,0,0,5.705-4.889l2.733-17.633a5.605,5.605,0,0,0-5.539-6.463H-597.8V371.873a5.678,5.678,0,0,0-5.679-5.677h-.084a3.064,3.064,0,0,0-3.026,2.578h0a54.147,54.147,0,0,1-4.756,14.915l-1.688,3.462h-9.913a3.6,3.6,0,0,0-3.6,3.6V407.72a3.6,3.6,0,0,0,3.6,3.6h9.889" transform="translate(626.549 -366.196)" fill="none" stroke="#6381d4" stroke-linecap="round" stroke-linejoin="round" stroke-width="4"/>
      </g>
    </g>
  </g>
</svg>
