<svg xmlns="http://www.w3.org/2000/svg" width="40" height="37.424" viewBox="0 0 40 37.424">
  <g id="Group_1860" data-name="Group 1860" transform="translate(-183.353 -902.332)">
    <g id="Group_1300" data-name="Group 1300" transform="translate(1564.593 1677.306)">
      <g id="Group_1297" data-name="Group 1297" transform="translate(-1.426 -39)">
        <path id="Path_765" data-name="Path 765" d="M-1352.41-707.986h4.1a6.5,6.5,0,0,0,6.5-6.5,6.5,6.5,0,0,0-5.111-6.346,11.3,11.3,0,0,0,.166-1.862,11.283,11.283,0,0,0-11.283-11.283,11.281,11.281,0,0,0-10.828,8.136h-.018a8.926,8.926,0,0,0-8.926,8.926,8.926,8.926,0,0,0,8.926,8.927" fill="none" stroke="#173587" stroke-linecap="round" stroke-linejoin="round" stroke-width="4"/>
        <g id="Group_1296" data-name="Group 1296">
          <line id="Line_963" data-name="Line 963" y2="8.894" transform="translate(-1367.218 -711.327)" fill="none" stroke="#6381d4" stroke-linecap="round" stroke-linejoin="round" stroke-width="4"/>
          <line id="Line_964" data-name="Line 964" y2="9.277" transform="translate(-1352.41 -713.115)" fill="none" stroke="#6381d4" stroke-linecap="round" stroke-linejoin="round" stroke-width="4"/>
          <line id="Line_965" data-name="Line 965" y2="8.224" transform="translate(-1359.814 -708.774)" fill="none" stroke="#6381d4" stroke-linecap="round" stroke-linejoin="round" stroke-width="4"/>
        </g>
      </g>
      <g id="Group_1299" data-name="Group 1299" transform="translate(0 -40.912)" opacity="0.1">
        <path id="Path_766" data-name="Path 766" d="M-1353.836-706.075h4.1a6.5,6.5,0,0,0,6.5-6.5,6.5,6.5,0,0,0-5.111-6.345,11.326,11.326,0,0,0,.167-1.863,11.283,11.283,0,0,0-11.283-11.282,11.28,11.28,0,0,0-10.829,8.135h-.017A8.927,8.927,0,0,0-1379.24-715a8.927,8.927,0,0,0,8.927,8.926" fill="none" stroke="#6381d4" stroke-linecap="round" stroke-linejoin="round" stroke-width="4"/>
        <g id="Group_1298" data-name="Group 1298">
          <line id="Line_966" data-name="Line 966" y2="8.894" transform="translate(-1368.644 -709.416)" fill="none" stroke="#6381d4" stroke-linecap="round" stroke-linejoin="round" stroke-width="4"/>
          <line id="Line_967" data-name="Line 967" y2="9.277" transform="translate(-1353.836 -711.203)" fill="none" stroke="#6381d4" stroke-linecap="round" stroke-linejoin="round" stroke-width="4"/>
          <line id="Line_968" data-name="Line 968" y2="8.224" transform="translate(-1361.24 -706.863)" fill="none" stroke="#6381d4" stroke-linecap="round" stroke-linejoin="round" stroke-width="4"/>
        </g>
      </g>
    </g>
  </g>
</svg>
