<svg xmlns="http://www.w3.org/2000/svg" width="41.776" height="41.96" viewBox="0 0 41.776 41.96">
  <g id="Group_447" data-name="Group 447" transform="translate(628.499 4908.393)">
    <g id="Group_444" data-name="Group 444">
      <g id="Group_443" data-name="Group 443">
        <circle id="Ellipse_41" data-name="Ellipse 41" cx="5.81" cy="5.81" r="5.81" transform="translate(-612.534 -4894.203)" fill="none" stroke="#6381d4" stroke-linecap="round" stroke-linejoin="round" stroke-width="4"/>
      </g>
      <path id="Path_221" data-name="Path 221" d="M-588.723-4885v-6.78h-5.449a12.923,12.923,0,0,0-1.277-3.09l3.851-3.851-4.794-4.794-3.851,3.851a13.067,13.067,0,0,0-3.09-1.286v-5.44h-6.78v5.44a13.043,13.043,0,0,0-3.089,1.286l-3.852-3.851-4.794,4.794,3.851,3.851a12.92,12.92,0,0,0-1.276,3.09h-5.45v6.78h5.45a12.913,12.913,0,0,0,1.276,3.089l-3.851,3.851,4.794,4.795,3.852-3.852a13.025,13.025,0,0,0,3.089,1.287v5.44h6.78v-5.44a13.049,13.049,0,0,0,3.09-1.287l3.851,3.852,4.794-4.795-3.851-3.851a12.915,12.915,0,0,0,1.277-3.089Z" fill="none" stroke="#173587" stroke-linecap="round" stroke-linejoin="round" stroke-width="4"/>
    </g>
    <g id="Group_446" data-name="Group 446" opacity="0.15">
      <g id="Group_445" data-name="Group 445">
        <circle id="Ellipse_42" data-name="Ellipse 42" cx="5.81" cy="5.81" r="5.81" transform="translate(-614.31 -4892.243)" fill="none" stroke="#6381d4" stroke-linecap="round" stroke-linejoin="round" stroke-width="4"/>
      </g>
      <path id="Path_222" data-name="Path 222" d="M-590.5-4883.043v-6.78h-5.449a12.963,12.963,0,0,0-1.277-3.09l3.851-3.851-4.794-4.794-3.852,3.851a13.062,13.062,0,0,0-3.089-1.286v-5.44h-6.78v5.44a13.063,13.063,0,0,0-3.089,1.286l-3.852-3.851-4.794,4.794,3.851,3.851a12.92,12.92,0,0,0-1.276,3.09h-5.45v6.78h5.45a12.913,12.913,0,0,0,1.276,3.089l-3.851,3.851,4.794,4.795,3.852-3.852a13.025,13.025,0,0,0,3.089,1.287v5.44h6.78v-5.44a13.024,13.024,0,0,0,3.089-1.287l3.852,3.852,4.794-4.795-3.851-3.851a12.955,12.955,0,0,0,1.277-3.089Z" fill="none" stroke="#6381d4" stroke-linecap="round" stroke-linejoin="round" stroke-width="4"/>
    </g>
  </g>
</svg>
