<svg xmlns="http://www.w3.org/2000/svg" width="41.453" height="36.977" viewBox="0 0 41.453 36.977">
  <g id="Group_1418" data-name="Group 1418" transform="translate(439.889 545.656)">
    <g id="Group_1415" data-name="Group 1415">
      <path id="Path_1140" data-name="Path 1140" d="M2.251,0A2.251,2.251,0,1,1,0,2.251,2.251,2.251,0,0,1,2.251,0Z" transform="translate(-420.701 -530.374)" fill="none" stroke="#6381d4" stroke-linecap="round" stroke-width="4"/>
      <g id="Group_1414" data-name="Group 1414">
        <path id="Path_843" data-name="Path 843" d="M-408.124-542.87a17.982,17.982,0,0,1,7.688,14.747,17.98,17.98,0,0,1-7.688,14.746" fill="none" stroke="#173587" stroke-linecap="round" stroke-linejoin="round" stroke-width="4"/>
        <path id="Path_844" data-name="Path 844" d="M-428.776-542.87a17.981,17.981,0,0,0-7.687,14.747,17.979,17.979,0,0,0,7.687,14.746" fill="none" stroke="#173587" stroke-linecap="round" stroke-linejoin="round" stroke-width="4"/>
        <path id="Path_845" data-name="Path 845" d="M-412.636-519.821a10.124,10.124,0,0,0,4.328-8.3,10.125,10.125,0,0,0-4.328-8.3" fill="none" stroke="#6381d4" stroke-linecap="round" stroke-linejoin="round" stroke-width="4"/>
        <path id="Path_846" data-name="Path 846" d="M-424.263-536.426a10.123,10.123,0,0,0-4.329,8.3,10.123,10.123,0,0,0,4.329,8.3" fill="none" stroke="#6381d4" stroke-linecap="round" stroke-linejoin="round" stroke-width="4"/>
      </g>
    </g>
    <g id="Group_1417" data-name="Group 1417" opacity="0.1">
      <circle id="Ellipse_220" data-name="Ellipse 220" cx="2.251" cy="2.251" r="2.251" transform="translate(-422.127 -528.462)" fill="none" stroke="#6381d4" stroke-linecap="round" stroke-linejoin="round" stroke-width="4"/>
      <g id="Group_1416" data-name="Group 1416">
        <path id="Path_847" data-name="Path 847" d="M-409.55-540.959a17.979,17.979,0,0,1,7.688,14.747,17.979,17.979,0,0,1-7.688,14.747" fill="none" stroke="#6381d4" stroke-linecap="round" stroke-linejoin="round" stroke-width="4"/>
        <path id="Path_848" data-name="Path 848" d="M-430.2-540.959a17.982,17.982,0,0,0-7.688,14.747,17.982,17.982,0,0,0,7.688,14.747" fill="none" stroke="#6381d4" stroke-linecap="round" stroke-linejoin="round" stroke-width="4"/>
        <path id="Path_849" data-name="Path 849" d="M-414.062-517.909a10.123,10.123,0,0,0,4.328-8.3,10.125,10.125,0,0,0-4.328-8.3" fill="none" stroke="#6381d4" stroke-linecap="round" stroke-linejoin="round" stroke-width="4"/>
        <path id="Path_850" data-name="Path 850" d="M-425.689-534.515a10.125,10.125,0,0,0-4.328,8.3,10.124,10.124,0,0,0,4.328,8.3" fill="none" stroke="#6381d4" stroke-linecap="round" stroke-linejoin="round" stroke-width="4"/>
      </g>
    </g>
  </g>
</svg>
