<svg xmlns="http://www.w3.org/2000/svg" width="54.875" height="51.016" viewBox="0 0 54.875 51.016">
  <g id="Group_1744" data-name="Group 1744" transform="translate(1571.909 1299.936)">
    <g id="Group_1347" data-name="Group 1347" transform="translate(-1568.191 -1297.427)">
      <line id="Line_987" data-name="Line 987" x2="1.423" transform="translate(18.005 15.102)" fill="none" stroke="#6381d4" stroke-linecap="round" stroke-linejoin="round" stroke-width="4"/>
      <path id="Path_793" data-name="Path 793" d="M-1548.087-1256.615c.074-.222,7.208-28.279,7.208-28.279" transform="translate(1572.666 1299.997)" fill="none" stroke="#6381d4" stroke-linecap="round" stroke-linejoin="round" stroke-width="4"/>
      <path id="Path_1131" data-name="Path 1131" d="M4.765,15.1,0,0" transform="translate(27.021 0)" fill="none" stroke="#6381d4" stroke-linecap="round" stroke-width="4"/>
      <path id="Path_794" data-name="Path 794" d="M-1565.006-1289.719l-3.477,5.814,24.578,28.28" transform="translate(1568.483 1299.007)" fill="none" stroke="#fff" stroke-linecap="round" stroke-linejoin="round" stroke-width="4"/>
      <path id="Path_795" data-name="Path 795" d="M-1545.063-1297.427h-15.547l-2.226,3.722" transform="translate(1569.641 1297.427)" fill="none" stroke="#fff" stroke-linecap="round" stroke-linejoin="round" stroke-width="4"/>
      <path id="Path_796" data-name="Path 796" d="M-1548.087-1297.427h15.547l9.032,15.1-24.578,28.28" transform="translate(1572.666 1297.427)" fill="none" stroke="#fff" stroke-linecap="round" stroke-linejoin="round" stroke-width="4"/>
      <line id="Line_989" data-name="Line 989" x2="23.268" transform="translate(25.505 15.102)" fill="none" stroke="#6381d4" stroke-linecap="round" stroke-linejoin="round" stroke-width="4"/>
    </g>
    <g id="Group_1348" data-name="Group 1348" transform="translate(-1569.909 -1295.123)" opacity="0.1">
      <line id="Line_990" data-name="Line 990" x2="1.423" transform="translate(18.005 15.102)" fill="none" stroke="#6381d4" stroke-linecap="round" stroke-linejoin="round" stroke-width="4"/>
      <path id="Path_797" data-name="Path 797" d="M-1549.513-1254.7c.075-.223,7.209-28.28,7.209-28.28" transform="translate(1574.091 1298.085)" fill="none" stroke="#6381d4" stroke-linecap="round" stroke-linejoin="round" stroke-width="4"/>
      <line id="Line_991" data-name="Line 991" x1="4.765" y1="15.102" transform="translate(27.021 0)" fill="none" stroke="#6381d4" stroke-linecap="round" stroke-linejoin="round" stroke-width="4"/>
      <path id="Path_798" data-name="Path 798" d="M-1566.432-1287.807l-3.477,5.814,24.579,28.28" transform="translate(1569.909 1297.096)" fill="none" stroke="#6381d4" stroke-linecap="round" stroke-linejoin="round" stroke-width="4"/>
      <path id="Path_799" data-name="Path 799" d="M-1546.488-1295.515h-15.547l-2.226,3.722" transform="translate(1571.067 1295.515)" fill="none" stroke="#6381d4" stroke-linecap="round" stroke-linejoin="round" stroke-width="4"/>
      <path id="Path_800" data-name="Path 800" d="M-1549.513-1295.515h15.547l9.032,15.1-24.578,28.28" transform="translate(1574.091 1295.515)" fill="none" stroke="#6381d4" stroke-linecap="round" stroke-linejoin="round" stroke-width="4"/>
      <line id="Line_992" data-name="Line 992" x2="23.268" transform="translate(25.505 15.102)" fill="none" stroke="#6381d4" stroke-linecap="round" stroke-linejoin="round" stroke-width="4"/>
    </g>
  </g>
</svg>
