<svg xmlns="http://www.w3.org/2000/svg" width="41.777" height="41.96" viewBox="0 0 41.777 41.96">
  <g id="Group_972" data-name="Group 972" transform="translate(1193.318 2658.29)">
    <g id="Group_968" data-name="Group 968">
      <g id="Group_967" data-name="Group 967">
        <g id="Group_966" data-name="Group 966">
          <path id="Path_466" data-name="Path 466" d="M-1186.823-2631.483l-2.718,11.193,11.193-2.718,23.051-23.052a5.99,5.99,0,0,0,0-8.474h0a5.99,5.99,0,0,0-8.474,0Z" fill="none" stroke="#173587" stroke-linecap="round" stroke-linejoin="round" stroke-width="4"/>
          <line id="Line_770" data-name="Line 770" x2="4.615" y2="4.615" transform="translate(-1164.191 -2649.067)" fill="none" stroke="#6381d4" stroke-linecap="round" stroke-linejoin="round" stroke-width="4"/>
        </g>
        <line id="Line_771" data-name="Line 771" x2="3.216" y2="3.231" transform="translate(-1188.503 -2624.553)" fill="none" stroke="#173587" stroke-linecap="round" stroke-linejoin="round" stroke-width="4"/>
      </g>
      <line id="Line_772" data-name="Line 772" x2="21.039" transform="translate(-1174.58 -2620.29)" fill="none" stroke="#6381d4" stroke-linecap="round" stroke-linejoin="round" stroke-width="4"/>
    </g>
    <g id="Group_971" data-name="Group 971" opacity="0.15">
      <g id="Group_970" data-name="Group 970">
        <g id="Group_969" data-name="Group 969">
          <path id="Path_467" data-name="Path 467" d="M-1188.6-2629.523l-2.719,11.193,11.194-2.718,23.051-23.052a5.991,5.991,0,0,0,0-8.475h0a5.992,5.992,0,0,0-8.474,0Z" fill="none" stroke="#6381d4" stroke-linecap="round" stroke-linejoin="round" stroke-width="4"/>
          <line id="Line_773" data-name="Line 773" x2="4.615" y2="4.615" transform="translate(-1165.967 -2647.107)" fill="none" stroke="#6381d4" stroke-linecap="round" stroke-linejoin="round" stroke-width="4"/>
        </g>
        <line id="Line_774" data-name="Line 774" x2="3.216" y2="3.231" transform="translate(-1190.279 -2622.594)" fill="none" stroke="#6381d4" stroke-linecap="round" stroke-linejoin="round" stroke-width="4"/>
      </g>
      <line id="Line_775" data-name="Line 775" x2="21.039" transform="translate(-1176.356 -2618.33)" fill="none" stroke="#6381d4" stroke-linecap="round" stroke-linejoin="round" stroke-width="4"/>
    </g>
  </g>
</svg>
