<svg xmlns="http://www.w3.org/2000/svg" width="63.549" height="51.517" viewBox="0 0 63.549 51.517">
  <g id="Group_1738" data-name="Group 1738" transform="translate(440.647 3781.334)">
    <g id="Group_360" data-name="Group 360" transform="translate(-435.466 -3779.334)">
      <g id="Group_357" data-name="Group 357">
        <path id="Path_195" data-name="Path 195" d="M-398.455-3774.474a22.159,22.159,0,0,1,5.536,14.683h0a22.236,22.236,0,0,1-22.236,22.235h0a22.16,22.16,0,0,1-9.289-2.026" transform="translate(443.102 3782.027)" fill="none" stroke="#fff" stroke-linecap="round" stroke-linejoin="round" stroke-width="4"/>
        <path id="Path_196" data-name="Path 196" d="M-427.917-3743.223a22.138,22.138,0,0,1-4.858-13.875h0a22.236,22.236,0,0,1,22.236-22.236h0a22.144,22.144,0,0,1,9.878,2.31" transform="translate(438.486 3779.334)" fill="none" stroke="#fff" stroke-linecap="round" stroke-linejoin="round" stroke-width="4"/>
        <g id="Group_356" data-name="Group 356" transform="translate(0 25.769)">
          <line id="Line_416" data-name="Line 416" x1="2.814" y2="11.442" transform="translate(11.441)" fill="none" stroke="#6381d4" stroke-linecap="round" stroke-linejoin="round" stroke-width="4"/>
          <line id="Line_417" data-name="Line 417" x1="11.44" y1="2.823" transform="translate(0 8.619)" fill="none" stroke="#6381d4" stroke-linecap="round" stroke-linejoin="round" stroke-width="4"/>
        </g>
      </g>
      <g id="Group_359" data-name="Group 359" transform="translate(41.692 7.26)">
        <g id="Group_358" data-name="Group 358">
          <line id="Line_418" data-name="Line 418" y1="11.442" x2="2.814" transform="translate(0 0)" fill="none" stroke="#6381d4" stroke-linecap="round" stroke-linejoin="round" stroke-width="4"/>
          <line id="Line_419" data-name="Line 419" x2="11.44" y2="2.824" transform="translate(2.814)" fill="none" stroke="#6381d4" stroke-linecap="round" stroke-linejoin="round" stroke-width="4"/>
        </g>
      </g>
    </g>
    <g id="Group_365" data-name="Group 365" transform="translate(-438.226 -3776.288)" opacity="0.15">
      <g id="Group_362" data-name="Group 362">
        <path id="Path_197" data-name="Path 197" d="M-400.233-3772.514a22.15,22.15,0,0,1,5.537,14.683h0a22.236,22.236,0,0,1-22.236,22.235h0a22.16,22.16,0,0,1-9.289-2.026" transform="translate(444.878 3780.067)" fill="none" stroke="#6381d4" stroke-linecap="round" stroke-linejoin="round" stroke-width="4"/>
        <path id="Path_198" data-name="Path 198" d="M-429.692-3741.263a22.14,22.14,0,0,1-4.86-13.875h0a22.236,22.236,0,0,1,22.237-22.236h0a22.145,22.145,0,0,1,9.878,2.31" transform="translate(440.262 3777.374)" fill="none" stroke="#6381d4" stroke-linecap="round" stroke-linejoin="round" stroke-width="4"/>
        <g id="Group_361" data-name="Group 361" transform="translate(0 25.769)">
          <line id="Line_420" data-name="Line 420" x1="2.814" y2="11.442" transform="translate(11.441)" fill="none" stroke="#6381d4" stroke-linecap="round" stroke-linejoin="round" stroke-width="4"/>
          <line id="Line_421" data-name="Line 421" x1="11.44" y1="2.823" transform="translate(0 8.619)" fill="none" stroke="#6381d4" stroke-linecap="round" stroke-linejoin="round" stroke-width="4"/>
        </g>
      </g>
      <g id="Group_364" data-name="Group 364" transform="translate(41.692 7.26)">
        <g id="Group_363" data-name="Group 363">
          <line id="Line_422" data-name="Line 422" y1="11.442" x2="2.814" transform="translate(0 0)" fill="none" stroke="#6381d4" stroke-linecap="round" stroke-linejoin="round" stroke-width="4"/>
          <line id="Line_423" data-name="Line 423" x2="11.44" y2="2.824" transform="translate(2.814)" fill="none" stroke="#6381d4" stroke-linecap="round" stroke-linejoin="round" stroke-width="4"/>
        </g>
      </g>
    </g>
  </g>
</svg>
