<svg xmlns="http://www.w3.org/2000/svg" width="41.776" height="31.808" viewBox="0 0 41.776 31.808">
  <g id="Group_1765" data-name="Group 1765" transform="translate(1005.045 3027.751)">
    <g id="Group_1058" data-name="Group 1058">
      <g id="Group_1056" data-name="Group 1056">
        <g id="Group_1055" data-name="Group 1055">
          <rect id="Rectangle_394" data-name="Rectangle 394" width="36" height="25.848" rx="2" transform="translate(-1001.269 -3025.751)" fill="none" stroke="#173587" stroke-linecap="round" stroke-linejoin="round" stroke-width="4"/>
        </g>
        <path id="Rectangle_395" data-name="Rectangle 395" d="M8.66,0h0a0,0,0,0,1,0,0V6.66a2,2,0,0,1-2,2H0a0,0,0,0,1,0,0v0A8.66,8.66,0,0,1,8.66,0Z" transform="translate(-973.928 -3008.563)" fill="none" stroke="#173587" stroke-linecap="round" stroke-linejoin="round" stroke-width="4"/>
        <path id="Rectangle_396" data-name="Rectangle 396" d="M0,0H6.66a2,2,0,0,1,2,2V8.66a0,0,0,0,1,0,0h0A8.66,8.66,0,0,1,0,0V0A0,0,0,0,1,0,0Z" transform="translate(-973.928 -3025.751)" fill="none" stroke="#173587" stroke-linecap="round" stroke-linejoin="round" stroke-width="4"/>
        <path id="Rectangle_397" data-name="Rectangle 397" d="M0,0H6.66a2,2,0,0,1,2,2V8.66a0,0,0,0,1,0,0h0A8.66,8.66,0,0,1,0,0V0A0,0,0,0,1,0,0Z" transform="translate(-992.609 -2999.903) rotate(180)" fill="none" stroke="#173587" stroke-linecap="round" stroke-linejoin="round" stroke-width="4"/>
        <path id="Rectangle_398" data-name="Rectangle 398" d="M8.66,0h0a0,0,0,0,1,0,0V6.66a2,2,0,0,1-2,2H0a0,0,0,0,1,0,0v0A8.66,8.66,0,0,1,8.66,0Z" transform="translate(-992.609 -3017.092) rotate(180)" fill="none" stroke="#173587" stroke-linecap="round" stroke-linejoin="round" stroke-width="4"/>
      </g>
      <g id="Group_1057" data-name="Group 1057">
        <path id="Path_542" data-name="Path 542" d="M-983.818-3012.827h-.243a3.206,3.206,0,0,1-3.206-3.206h0a3.205,3.205,0,0,1,3.206-3.205h3.432" fill="none" stroke="#6381d4" stroke-linecap="round" stroke-linejoin="round" stroke-width="4"/>
        <path id="Path_543" data-name="Path 543" d="M-983.818-3012.827h1.04a3.205,3.205,0,0,1,3.206,3.2h0a3.206,3.206,0,0,1-3.206,3.206h-3.432" fill="none" stroke="#6381d4" stroke-linecap="round" stroke-linejoin="round" stroke-width="4"/>
      </g>
    </g>
    <g id="Group_1062" data-name="Group 1062" opacity="0.15">
      <g id="Group_1060" data-name="Group 1060">
        <g id="Group_1059" data-name="Group 1059">
          <rect id="Rectangle_399" data-name="Rectangle 399" width="36" height="25.848" rx="2" transform="translate(-1003.045 -3023.791)" fill="none" stroke="#6381d4" stroke-linecap="round" stroke-linejoin="round" stroke-width="4"/>
        </g>
        <path id="Rectangle_400" data-name="Rectangle 400" d="M8.66,0h0a0,0,0,0,1,0,0V6.66a2,2,0,0,1-2,2H0a0,0,0,0,1,0,0v0A8.66,8.66,0,0,1,8.66,0Z" transform="translate(-975.704 -3006.603)" fill="none" stroke="#6381d4" stroke-linecap="round" stroke-linejoin="round" stroke-width="4"/>
        <path id="Rectangle_401" data-name="Rectangle 401" d="M0,0H6.66a2,2,0,0,1,2,2V8.66a0,0,0,0,1,0,0h0A8.66,8.66,0,0,1,0,0V0A0,0,0,0,1,0,0Z" transform="translate(-975.704 -3023.791)" fill="none" stroke="#6381d4" stroke-linecap="round" stroke-linejoin="round" stroke-width="4"/>
        <path id="Rectangle_402" data-name="Rectangle 402" d="M0,0H6.66a2,2,0,0,1,2,2V8.66a0,0,0,0,1,0,0h0A8.66,8.66,0,0,1,0,0V0A0,0,0,0,1,0,0Z" transform="translate(-994.385 -2997.943) rotate(180)" fill="none" stroke="#6381d4" stroke-linecap="round" stroke-linejoin="round" stroke-width="4"/>
        <path id="Rectangle_403" data-name="Rectangle 403" d="M8.66,0h0a0,0,0,0,1,0,0V6.66a2,2,0,0,1-2,2H0a0,0,0,0,1,0,0v0A8.66,8.66,0,0,1,8.66,0Z" transform="translate(-994.385 -3015.132) rotate(180)" fill="none" stroke="#6381d4" stroke-linecap="round" stroke-linejoin="round" stroke-width="4"/>
      </g>
      <g id="Group_1061" data-name="Group 1061">
        <path id="Path_544" data-name="Path 544" d="M-985.594-3010.867h-.244a3.205,3.205,0,0,1-3.205-3.206h0a3.205,3.205,0,0,1,3.205-3.205h3.433" fill="none" stroke="#6381d4" stroke-linecap="round" stroke-linejoin="round" stroke-width="4"/>
        <path id="Path_545" data-name="Path 545" d="M-985.594-3010.867h1.04a3.205,3.205,0,0,1,3.206,3.2h0a3.206,3.206,0,0,1-3.206,3.206h-3.432" fill="none" stroke="#6381d4" stroke-linecap="round" stroke-linejoin="round" stroke-width="4"/>
      </g>
    </g>
  </g>
</svg>
