<svg xmlns="http://www.w3.org/2000/svg" width="45.179" height="43.448" viewBox="0 0 45.179 43.448">
  <g id="Group_1768" data-name="Group 1768" transform="translate(-524.26 -2114.688)">
    <g id="Group_1766" data-name="Group 1766" transform="translate(525.76 2125.222)">
      <g id="Group_444" data-name="Group 444" transform="translate(1.47 0)">
        <g id="Group_443" data-name="Group 443" transform="translate(10.087 10.088)">
          <circle id="Ellipse_41" data-name="Ellipse 41" cx="4.808" cy="4.808" r="4.808" fill="none" stroke="#6381d4" stroke-linecap="round" stroke-linejoin="round" stroke-width="3"/>
        </g>
        <path id="Path_221" data-name="Path 221" d="M-594.931-4888.692v-5.611h-4.509a10.691,10.691,0,0,0-1.057-2.557l3.187-3.187-3.967-3.967-3.187,3.187a10.805,10.805,0,0,0-2.557-1.064v-4.5h-5.611v4.5a10.786,10.786,0,0,0-2.556,1.064l-3.188-3.187-3.967,3.967,3.187,3.187a10.691,10.691,0,0,0-1.056,2.557h-4.51v5.611h4.51a10.687,10.687,0,0,0,1.056,2.557l-3.187,3.187,3.967,3.968,3.188-3.188a10.768,10.768,0,0,0,2.556,1.065v4.5h5.611v-4.5a10.787,10.787,0,0,0,2.557-1.065l3.187,3.188,3.967-3.968-3.187-3.187a10.687,10.687,0,0,0,1.057-2.557Z" transform="translate(624.723 4906.393)" fill="none" stroke="#173587" stroke-linecap="round" stroke-linejoin="round" stroke-width="3"/>
      </g>
      <g id="Group_446" data-name="Group 446" transform="translate(0 1.622)" opacity="0.15">
        <g id="Group_445" data-name="Group 445" transform="translate(10.087 10.088)">
          <circle id="Ellipse_42" data-name="Ellipse 42" cx="4.808" cy="4.808" r="4.808" fill="none" stroke="#6381d4" stroke-linecap="round" stroke-linejoin="round" stroke-width="3"/>
        </g>
        <path id="Path_222" data-name="Path 222" d="M-596.707-4886.732v-5.611h-4.509a10.723,10.723,0,0,0-1.057-2.557l3.187-3.187-3.967-3.967-3.188,3.187a10.823,10.823,0,0,0-2.556-1.064v-4.5h-5.611v4.5a10.825,10.825,0,0,0-2.556,1.064l-3.188-3.187-3.967,3.967,3.187,3.187a10.693,10.693,0,0,0-1.056,2.557h-4.51v5.611h4.51a10.686,10.686,0,0,0,1.056,2.556l-3.187,3.187,3.967,3.968,3.188-3.188a10.788,10.788,0,0,0,2.556,1.065v4.5h5.611v-4.5a10.787,10.787,0,0,0,2.556-1.065l3.188,3.188,3.967-3.968-3.187-3.187a10.716,10.716,0,0,0,1.057-2.556Z" transform="translate(626.499 4904.433)" fill="none" stroke="#6381d4" stroke-linecap="round" stroke-linejoin="round" stroke-width="3"/>
      </g>
    </g>
    <g id="Group_1767" data-name="Group 1767" transform="translate(555.985 2114.688)">
      <g id="Group_1725" data-name="Group 1725" transform="translate(0 3.833)">
        <g id="Group_1724" data-name="Group 1724">
          <line id="Line_1168" data-name="Line 1168" y1="6.843" x2="6.843" transform="translate(3.782)" fill="none" stroke="#6381d4" stroke-linecap="round" stroke-linejoin="round" stroke-width="4"/>
          <g id="Group_1723" data-name="Group 1723" transform="translate(0 3.396)">
            <g id="Group_1722" data-name="Group 1722">
              <line id="Line_1169" data-name="Line 1169" x1="3.781" y1="3.447" fill="none" stroke="#6381d4" stroke-linecap="round" stroke-linejoin="round" stroke-width="4"/>
            </g>
          </g>
        </g>
      </g>
      <g id="Group_1726" data-name="Group 1726" transform="translate(5.067 0)">
        <path id="Path_1128" data-name="Path 1128" d="M-983.269,933.124" transform="translate(983.269 -933.124)" fill="none" stroke="#9f6aff" stroke-linecap="round" stroke-linejoin="round" stroke-width="4"/>
      </g>
    </g>
  </g>
</svg>
